<?xml version="1.0" encoding="utf-8"?>
<!-- Generator: Adobe Illustrator 19.1.0, SVG Export Plug-In . SVG Version: 6.00 Build 0)  -->
<svg version="1.1" id="Layer_1" xmlns="http://www.w3.org/2000/svg" xmlns:xlink="http://www.w3.org/1999/xlink" x="0px" y="0px"
	 viewBox="0 0 70 70" style="enable-background:new 0 0 70 70;" xml:space="preserve">
<style type="text/css">
	.st0{fill:#F63C3C;}
	.st1{fill:#FFFFFF;}
</style>
<rect class="st0" width="70" height="70"/>
<path class="st1" d="M45.4,29.6l-0.7-4.3h-3.9l-0.7,4.3h-2.7L40.7,11h3.9l3.5,18.6H45.4z M42.6,13.3l-1.5,9.8h3.2L42.6,13.3z
	 M28.9,51.9h-3.2c-1.8,0-2.8-0.9-2.8-2.6V35.9c0-1.7,0.9-2.6,2.8-2.6h3.2c1.8,0,2.8,0.9,2.8,2.6v2.8H29v-2.5c0-0.4-0.1-0.6-0.2-0.7
	c-0.1-0.1-0.4-0.2-0.7-0.2h-1.5c-0.4,0-0.6,0.1-0.7,0.2c-0.1,0.1-0.2,0.3-0.2,0.7v12.7c0,0.4,0.1,0.6,0.2,0.7s0.4,0.2,0.7,0.2h1.5
	c0.4,0,0.6-0.1,0.7-0.2c0.1-0.1,0.2-0.3,0.2-0.7v-4.5h-1.5v-2.1h4.2v7C31.7,51,30.8,51.9,28.9,51.9z M28.7,29.6h-2.9
	c-1.8,0-2.8-0.9-2.8-2.6v-2.7h2.7v2.3c0,0.4,0.1,0.6,0.2,0.7c0.1,0.1,0.4,0.2,0.7,0.2h1.2c0.4,0,0.6-0.1,0.7-0.2
	c0.1-0.1,0.2-0.3,0.2-0.7V22c0-0.4-0.1-0.6-0.2-0.7c-0.1-0.1-0.3-0.2-0.7-0.2h-2.2c-1.8,0-2.7-0.9-2.7-2.6v-4.9
	c0-1.7,0.9-2.6,2.8-2.6h2.9c1.8,0,2.8,0.9,2.8,2.6v2.7h-2.7V14c0-0.4-0.1-0.6-0.2-0.7c-0.1-0.1-0.4-0.2-0.7-0.2h-1.2
	c-0.4,0-0.6,0.1-0.7,0.2c-0.1,0.1-0.2,0.3-0.2,0.7v4.1c0,0.4,0.1,0.6,0.2,0.7C26,19,26.3,19,26.6,19h2.2c1.8,0,2.7,0.9,2.7,2.6V27
	C31.5,28.7,30.6,29.6,28.7,29.6z M46.9,57.2H23.2v-2.4h23.8V57.2z M47,49.7v2.2h-8.1V33.3h7.9v2.2h-5.2v5.7h4.3v2.2h-4.3v6.4H47z"/>
</svg>
